<?xml version="1.0" encoding="UTF-8" standalone="no"?>
<!-- Generator: Adobe Illustrator 16.0.0, SVG Export Plug-In . SVG Version: 6.00 Build 0)  -->

<svg
   xmlns:dc="http://purl.org/dc/elements/1.1/"
   xmlns:cc="http://creativecommons.org/ns#"
   xmlns:rdf="http://www.w3.org/1999/02/22-rdf-syntax-ns#"
   xmlns:svg="http://www.w3.org/2000/svg"
   xmlns="http://www.w3.org/2000/svg"
   xmlns:sodipodi="http://sodipodi.sourceforge.net/DTD/sodipodi-0.dtd"
   xmlns:inkscape="http://www.inkscape.org/namespaces/inkscape"
   version="1.1"
   id="Calque_1"
   x="0px"
   y="0px"
   width="164.75px"
   height="81.432px"
   viewBox="0 0 164.75 81.432"
   enable-background="new 0 0 164.75 81.432"
   xml:space="preserve"
   inkscape:version="0.91 r13725"
   sodipodi:docname="Header (copie).svg"><metadata
     id="metadata151"><rdf:RDF><cc:Work
         rdf:about=""><dc:format>image/svg+xml</dc:format><dc:type
           rdf:resource="http://purl.org/dc/dcmitype/StillImage" /></cc:Work></rdf:RDF></metadata><defs
     id="defs149" /><sodipodi:namedview
     pagecolor="#ffffff"
     bordercolor="#666666"
     borderopacity="1"
     objecttolerance="10"
     gridtolerance="10"
     guidetolerance="10"
     inkscape:pageopacity="0"
     inkscape:pageshadow="2"
     inkscape:window-width="1366"
     inkscape:window-height="744"
     id="namedview147"
     showgrid="false"
     inkscape:zoom="6.8467375"
     inkscape:cx="82.271359"
     inkscape:cy="39.586919"
     inkscape:window-x="0"
     inkscape:window-y="24"
     inkscape:window-maximized="1"
     inkscape:current-layer="Calque_1" /><g
     id="g3"
     style="fill:#ffffff"><path
       d="M4.942,37.508h3.959v21.597h6.515v3.6H4.942V37.508z"
       id="path5"
       style="fill:#ffffff" /><path
       d="M25.688,62.704H22.89l-0.479-3.201h-3.403l-0.479,3.201h-2.546l2.823-17.645h4.059L25.688,62.704z M19.36,57.108h2.672   l-1.311-8.924h-0.051L19.36,57.108z"
       id="path7"
       style="fill:#ffffff" /><path
       d="M44.824,43.303v0.9c0,2.591-0.792,4.212-2.556,5.039v0.072c2.124,0.827,2.952,2.7,2.952,5.363v2.052   c0,3.887-2.052,5.975-6.012,5.975h-6.228V37.508h5.976C43.061,37.508,44.824,39.416,44.824,43.303z M36.941,41.107v6.659h1.548   c1.476,0,2.376-0.648,2.376-2.664v-1.404c0-1.799-0.612-2.591-2.017-2.591H36.941z M36.941,51.366v7.738h2.268   c1.332,0,2.052-0.611,2.052-2.482v-2.196c0-2.34-0.756-3.06-2.556-3.06H36.941z"
       id="path9"
       style="fill:#ffffff" /><path
       d="M55.876,62.704c-0.216-0.647-0.36-1.043-0.36-3.096v-3.959c0-2.34-0.791-3.203-2.591-3.203h-1.368v10.258h-3.96V37.508   h5.976c4.104,0,5.867,1.908,5.867,5.795v1.979c0,2.592-0.828,4.248-2.592,5.076v0.072c1.98,0.827,2.628,2.699,2.628,5.326v3.889   c0,1.223,0.036,2.123,0.432,3.059H55.876z M51.557,41.107v7.739h1.548c1.476,0,2.376-0.648,2.376-2.664v-2.484   c0-1.799-0.612-2.591-2.017-2.591H51.557z"
       id="path11"
       style="fill:#ffffff" /><path
       d="M74.883,62.704h-3.995l-0.684-4.57h-4.859l-0.685,4.57h-3.636l4.032-25.196h5.795L74.883,62.704z M65.849,54.714h3.815   l-1.872-12.743H67.72L65.849,54.714z"
       id="path13"
       style="fill:#ffffff" /><path
       d="M89.932,37.508l-4.14,12.238l4.428,12.958h-4.176l-3.204-9.971h-0.071l-3.24,9.971h-3.707l4.428-12.958l-4.14-12.238h4.104   l2.951,9.286h0.072l3.023-9.286H89.932z"
       id="path15"
       style="fill:#ffffff" /><path
       d="M96.16,48.126h5.436v3.6H96.16v7.379h6.839v3.6H92.2V37.508h10.799v3.6H96.16V48.126z"
       id="path17"
       style="fill:#ffffff" /><path
       d="M109.408,48.126h5.436v3.6h-5.436v7.379h6.839v3.6h-10.799V37.508h10.799v3.6h-6.839V48.126z"
       id="path19"
       style="fill:#ffffff" /><path
       d="M122.296,44.455h-0.071v18.249h-3.563V37.508h4.967l3.995,15.082h0.072V37.508h3.527v25.196h-4.067L122.296,44.455z"
       id="path21"
       style="fill:#ffffff" /><path
       d="M137.667,44.455h-0.071v18.249h-3.563V37.508h4.967l3.995,15.082h0.072V37.508h3.527v25.196h-4.067L137.667,44.455z"
       id="path23"
       style="fill:#ffffff" /><path
       d="M153.399,48.126h5.436v3.6h-5.436v7.379h6.839v3.6h-10.799V37.508h10.799v3.6h-6.839V48.126z"
       id="path25"
       style="fill:#ffffff" /></g><line
     fill="none"
     stroke="#000000"
     stroke-width="1.5"
     stroke-miterlimit="10"
     x1="0.45"
     y1="67.538"
     x2="164.3"
     y2="67.538"
     id="line27"
     style="stroke:#ffffff" /><g
     id="g29"><rect
       y="69.518"
       fill="none"
       width="164.75"
       height="9.25"
       id="rect31" /><path
       d="M24.446,78.936l-3.012-6.885l-0.65,6.551h-0.803l1.166-8.941l3.287,7.635l3.41-7.635l1.102,8.941h-0.803l-0.639-6.551   L24.446,78.936z"
       id="path33"
       style="fill:#ffffff" /><path
       d="M30.323,71.377c0-0.152,0.055-0.282,0.164-0.39s0.24-0.161,0.393-0.161s0.284,0.054,0.396,0.161s0.167,0.237,0.167,0.39   c0,0.156-0.054,0.287-0.161,0.393s-0.241,0.158-0.401,0.158c-0.156,0-0.288-0.053-0.396-0.158S30.323,71.533,30.323,71.377z    M30.505,78.602v-5.197h0.744v5.197H30.505z"
       id="path35"
       style="fill:#ffffff" /><path
       d="M37.261,74.354c-0.242-0.168-0.5-0.294-0.773-0.378s-0.555-0.126-0.844-0.126c-0.645,0-1.158,0.206-1.541,0.618   s-0.574,0.962-0.574,1.649c0,0.609,0.198,1.111,0.595,1.506s0.903,0.592,1.521,0.592c0.281,0,0.565-0.049,0.853-0.146   s0.569-0.244,0.847-0.439v0.791c-0.254,0.145-0.535,0.253-0.844,0.325s-0.639,0.108-0.99,0.108c-0.793,0-1.443-0.261-1.951-0.782   s-0.762-1.188-0.762-2.001c0-0.848,0.265-1.536,0.794-2.065s1.218-0.794,2.065-0.794c0.313,0,0.606,0.03,0.882,0.091   s0.521,0.147,0.735,0.261L37.261,74.354z"
       id="path37"
       style="fill:#ffffff" /><path
       d="M39.411,74.447c0.266-0.449,0.526-0.768,0.782-0.955s0.554-0.281,0.894-0.281c0.102,0,0.204,0.01,0.308,0.029   s0.206,0.047,0.308,0.082l-0.234,0.68c-0.078-0.023-0.159-0.043-0.243-0.059s-0.165-0.023-0.243-0.023   c-0.434,0-0.804,0.203-1.11,0.609s-0.46,0.912-0.46,1.518v2.555H38.69v-5.197h0.721V74.447z"
       id="path39"
       style="fill:#ffffff" /><path
       d="M44.831,78.83c-0.371,0-0.727-0.073-1.066-0.22s-0.648-0.356-0.926-0.63c-0.262-0.258-0.461-0.555-0.598-0.891   s-0.205-0.695-0.205-1.078c0-0.379,0.07-0.738,0.211-1.078s0.342-0.641,0.604-0.902c0.266-0.266,0.568-0.469,0.908-0.609   s0.697-0.211,1.072-0.211c0.383,0,0.747,0.07,1.093,0.211s0.653,0.344,0.923,0.609s0.476,0.568,0.618,0.908   s0.214,0.697,0.214,1.072s-0.07,0.731-0.211,1.069s-0.344,0.638-0.609,0.899c-0.273,0.273-0.585,0.483-0.935,0.63   S45.21,78.83,44.831,78.83z M44.854,78.156c0.57,0,1.054-0.206,1.45-0.618s0.595-0.917,0.595-1.515   c0-0.605-0.197-1.113-0.592-1.523s-0.879-0.615-1.453-0.615c-0.57,0-1.053,0.205-1.447,0.615s-0.592,0.918-0.592,1.523   c0,0.598,0.197,1.103,0.592,1.515S44.284,78.156,44.854,78.156z"
       id="path41"
       style="fill:#ffffff" /><path
       d="M49.888,78.602h-0.721V69.52h0.721v4.834c0.176-0.375,0.423-0.659,0.741-0.853s0.698-0.29,1.14-0.29   c0.711,0,1.291,0.263,1.74,0.788s0.674,1.204,0.674,2.036c0,0.84-0.228,1.516-0.683,2.027s-1.056,0.768-1.802,0.768   c-0.418,0-0.781-0.1-1.09-0.299s-0.549-0.492-0.721-0.879V78.602z M53.38,76.059c0-0.68-0.158-1.214-0.475-1.603   s-0.746-0.583-1.289-0.583s-0.969,0.183-1.277,0.548s-0.463,0.866-0.463,1.503c0,0.695,0.157,1.241,0.472,1.638   s0.745,0.595,1.292,0.595c0.559,0,0.988-0.181,1.289-0.542S53.38,76.734,53.38,76.059z"
       id="path43"
       style="fill:#ffffff" /><path
       d="M56.38,74.447c0.266-0.449,0.526-0.768,0.782-0.955s0.554-0.281,0.894-0.281c0.102,0,0.204,0.01,0.308,0.029   s0.206,0.047,0.308,0.082l-0.234,0.68c-0.078-0.023-0.159-0.043-0.243-0.059s-0.165-0.023-0.243-0.023   c-0.434,0-0.804,0.203-1.11,0.609s-0.46,0.912-0.46,1.518v2.555h-0.721v-5.197h0.721V74.447z"
       id="path45"
       style="fill:#ffffff" /><path
       d="M63.276,78.602v-0.949c-0.172,0.383-0.413,0.675-0.724,0.876s-0.677,0.302-1.099,0.302c-0.746,0-1.347-0.256-1.802-0.768   s-0.683-1.188-0.683-2.027c0-0.832,0.225-1.511,0.674-2.036s1.029-0.788,1.74-0.788c0.441,0,0.823,0.097,1.146,0.29   s0.571,0.478,0.747,0.853v-0.949h0.721v5.197H63.276z M59.772,76.059c0,0.672,0.151,1.189,0.454,1.553s0.735,0.545,1.298,0.545   c0.547,0,0.978-0.198,1.292-0.595s0.472-0.942,0.472-1.638c0-0.637-0.156-1.138-0.469-1.503s-0.74-0.548-1.283-0.548   s-0.973,0.194-1.289,0.583S59.772,75.379,59.772,76.059z"
       id="path47"
       style="fill:#ffffff" /><path
       d="M65.339,77.676l0.686-0.393c0.113,0.289,0.277,0.507,0.492,0.653s0.479,0.22,0.791,0.22c0.305,0,0.547-0.077,0.727-0.231   s0.27-0.36,0.27-0.618c0-0.398-0.354-0.736-1.061-1.014c-0.074-0.027-0.133-0.051-0.176-0.07c-0.547-0.215-0.93-0.437-1.148-0.665   s-0.328-0.511-0.328-0.847c0-0.441,0.156-0.804,0.469-1.087s0.717-0.425,1.213-0.425c0.422,0,0.781,0.092,1.078,0.275   s0.514,0.445,0.65,0.785l-0.662,0.369c-0.082-0.246-0.219-0.434-0.41-0.563s-0.426-0.193-0.703-0.193   c-0.25,0-0.456,0.073-0.618,0.22s-0.243,0.329-0.243,0.548c0,0.215,0.08,0.393,0.24,0.533s0.492,0.295,0.996,0.463   c0.57,0.199,0.954,0.416,1.151,0.65s0.296,0.559,0.296,0.973c0,0.477-0.17,0.857-0.51,1.143s-0.797,0.428-1.371,0.428   c-0.441,0-0.821-0.101-1.14-0.302S65.479,78.043,65.339,77.676z"
       id="path49"
       style="fill:#ffffff" /><path
       d="M69.921,77.676l0.686-0.393c0.113,0.289,0.277,0.507,0.492,0.653s0.479,0.22,0.791,0.22c0.305,0,0.547-0.077,0.727-0.231   s0.27-0.36,0.27-0.618c0-0.398-0.354-0.736-1.061-1.014c-0.074-0.027-0.133-0.051-0.176-0.07c-0.547-0.215-0.93-0.437-1.148-0.665   s-0.328-0.511-0.328-0.847c0-0.441,0.156-0.804,0.469-1.087s0.717-0.425,1.213-0.425c0.422,0,0.781,0.092,1.078,0.275   s0.514,0.445,0.65,0.785l-0.662,0.369c-0.082-0.246-0.219-0.434-0.41-0.563s-0.426-0.193-0.703-0.193   c-0.25,0-0.456,0.073-0.618,0.22s-0.243,0.329-0.243,0.548c0,0.215,0.08,0.393,0.24,0.533s0.492,0.295,0.996,0.463   c0.57,0.199,0.954,0.416,1.151,0.65s0.296,0.559,0.296,0.973c0,0.477-0.17,0.857-0.51,1.143s-0.797,0.428-1.371,0.428   c-0.441,0-0.821-0.101-1.14-0.302S70.062,78.043,69.921,77.676z"
       id="path51"
       style="fill:#ffffff" /><path
       d="M79.56,76.023h-4.131c0.02,0.672,0.188,1.199,0.504,1.582s0.74,0.574,1.271,0.574c0.383,0,0.719-0.104,1.008-0.311   s0.529-0.52,0.721-0.938l0.662,0.363c-0.266,0.527-0.591,0.915-0.976,1.163s-0.856,0.372-1.415,0.372   c-0.762,0-1.378-0.255-1.849-0.765s-0.706-1.179-0.706-2.007c0-0.852,0.233-1.539,0.7-2.063s1.077-0.785,1.831-0.785   c0.719,0,1.295,0.241,1.729,0.724s0.65,1.126,0.65,1.931V76.023z M78.704,75.408c-0.035-0.477-0.193-0.846-0.475-1.107   s-0.662-0.393-1.143-0.393c-0.438,0-0.804,0.137-1.099,0.41s-0.466,0.637-0.513,1.09H78.704z"
       id="path53"
       style="fill:#ffffff" /><path
       d="M81.78,74.447c0.266-0.449,0.526-0.768,0.782-0.955s0.554-0.281,0.894-0.281c0.102,0,0.204,0.01,0.308,0.029   s0.206,0.047,0.308,0.082l-0.234,0.68c-0.078-0.023-0.159-0.043-0.243-0.059s-0.165-0.023-0.243-0.023   c-0.434,0-0.804,0.203-1.11,0.609s-0.46,0.912-0.46,1.518v2.555H81.06v-5.197h0.721V74.447z"
       id="path55"
       style="fill:#ffffff" /><path
       d="M84.704,71.377c0-0.152,0.055-0.282,0.164-0.39s0.24-0.161,0.393-0.161s0.284,0.054,0.396,0.161s0.167,0.237,0.167,0.39   c0,0.156-0.054,0.287-0.161,0.393s-0.241,0.158-0.401,0.158c-0.156,0-0.288-0.053-0.396-0.158S84.704,71.533,84.704,71.377z    M84.886,78.602v-5.197h0.744v5.197H84.886z"
       id="path57"
       style="fill:#ffffff" /><path
       d="M92.063,76.023h-4.131c0.02,0.672,0.188,1.199,0.504,1.582s0.74,0.574,1.271,0.574c0.383,0,0.719-0.104,1.008-0.311   s0.529-0.52,0.721-0.938l0.662,0.363c-0.266,0.527-0.591,0.915-0.976,1.163s-0.856,0.372-1.415,0.372   c-0.762,0-1.378-0.255-1.849-0.765s-0.706-1.179-0.706-2.007c0-0.852,0.233-1.539,0.7-2.063s1.077-0.785,1.831-0.785   c0.719,0,1.295,0.241,1.729,0.724s0.65,1.126,0.65,1.931V76.023z M91.208,75.408c-0.035-0.477-0.193-0.846-0.475-1.107   s-0.662-0.393-1.143-0.393c-0.438,0-0.804,0.137-1.099,0.41s-0.466,0.637-0.513,1.09H91.208z"
       id="path59"
       style="fill:#ffffff" /><path
       d="M95.954,78.602l3.768-8.918l3.609,8.918h-0.85l-1.096-2.906h-3.504l-1.137,2.906H95.954z M98.146,75.027h2.988   l-1.465-3.732L98.146,75.027z"
       id="path61"
       style="fill:#ffffff" /><path
       d="M104.907,74.447c0.266-0.449,0.526-0.768,0.782-0.955s0.554-0.281,0.894-0.281c0.102,0,0.204,0.01,0.308,0.029   s0.206,0.047,0.308,0.082l-0.234,0.68c-0.078-0.023-0.159-0.043-0.243-0.059s-0.165-0.023-0.243-0.023   c-0.434,0-0.804,0.203-1.11,0.609s-0.46,0.912-0.46,1.518v2.555h-0.721v-5.197h0.721V74.447z"
       id="path63"
       style="fill:#ffffff" /><path
       d="M108.118,74.02h-0.955v-0.615h0.955v-2.133h0.709v2.133h1.043v0.615h-1.043v4.582h-0.709V74.02z"
       id="path65"
       style="fill:#ffffff" /><path
       d="M110.808,71.377c0-0.152,0.055-0.282,0.164-0.39s0.24-0.161,0.393-0.161s0.284,0.054,0.396,0.161s0.167,0.237,0.167,0.39   c0,0.156-0.054,0.287-0.161,0.393s-0.241,0.158-0.401,0.158c-0.156,0-0.288-0.053-0.396-0.158S110.808,71.533,110.808,71.377z    M110.989,78.602v-5.197h0.744v5.197H110.989z"
       id="path67"
       style="fill:#ffffff" /><path
       d="M113.11,77.676l0.686-0.393c0.113,0.289,0.277,0.507,0.492,0.653s0.479,0.22,0.791,0.22c0.305,0,0.547-0.077,0.727-0.231   s0.27-0.36,0.27-0.618c0-0.398-0.354-0.736-1.061-1.014c-0.074-0.027-0.133-0.051-0.176-0.07c-0.547-0.215-0.93-0.437-1.148-0.665   s-0.328-0.511-0.328-0.847c0-0.441,0.156-0.804,0.469-1.087s0.717-0.425,1.213-0.425c0.422,0,0.781,0.092,1.078,0.275   s0.514,0.445,0.65,0.785l-0.662,0.369c-0.082-0.246-0.219-0.434-0.41-0.563s-0.426-0.193-0.703-0.193   c-0.25,0-0.456,0.073-0.618,0.22s-0.243,0.329-0.243,0.548c0,0.215,0.08,0.393,0.24,0.533s0.492,0.295,0.996,0.463   c0.57,0.199,0.954,0.416,1.151,0.65s0.296,0.559,0.296,0.973c0,0.477-0.17,0.857-0.51,1.143s-0.797,0.428-1.371,0.428   c-0.441,0-0.821-0.101-1.14-0.302S113.251,78.043,113.11,77.676z"
       id="path69"
       style="fill:#ffffff" /><path
       d="M122.122,78.602v-0.949c-0.172,0.383-0.413,0.675-0.724,0.876s-0.677,0.302-1.099,0.302c-0.746,0-1.347-0.256-1.802-0.768   s-0.683-1.188-0.683-2.027c0-0.832,0.225-1.511,0.674-2.036s1.029-0.788,1.74-0.788c0.441,0,0.823,0.097,1.146,0.29   s0.571,0.478,0.747,0.853v-0.949h0.721v5.197H122.122z M118.618,76.059c0,0.672,0.151,1.189,0.454,1.553s0.735,0.545,1.298,0.545   c0.547,0,0.978-0.198,1.292-0.595s0.472-0.942,0.472-1.638c0-0.637-0.156-1.138-0.469-1.503s-0.74-0.548-1.283-0.548   s-0.973,0.194-1.289,0.583S118.618,75.379,118.618,76.059z"
       id="path71"
       style="fill:#ffffff" /><path
       d="M124.776,78.602v-5.197h0.686v0.803c0.211-0.332,0.47-0.581,0.776-0.747s0.659-0.249,1.058-0.249   c0.59,0,1.049,0.164,1.377,0.492s0.492,0.785,0.492,1.371v3.527h-0.732v-3.205c0-0.52-0.108-0.905-0.325-1.157   s-0.552-0.378-1.005-0.378c-0.551,0-0.956,0.163-1.216,0.489s-0.39,0.839-0.39,1.538v2.713H124.776z"
       id="path73"
       style="fill:#ffffff" /><path
       d="M134.866,78.602v-0.949c-0.172,0.383-0.413,0.675-0.724,0.876s-0.677,0.302-1.099,0.302c-0.746,0-1.347-0.256-1.802-0.768   s-0.683-1.188-0.683-2.027c0-0.832,0.225-1.511,0.674-2.036s1.029-0.788,1.74-0.788c0.441,0,0.823,0.097,1.146,0.29   s0.571,0.478,0.747,0.853v-0.949h0.721v5.197H134.866z M131.362,76.059c0,0.672,0.151,1.189,0.454,1.553s0.735,0.545,1.298,0.545   c0.547,0,0.978-0.198,1.292-0.595s0.472-0.942,0.472-1.638c0-0.637-0.156-1.138-0.469-1.503s-0.74-0.548-1.283-0.548   s-0.973,0.194-1.289,0.583S131.362,75.379,131.362,76.059z"
       id="path75"
       style="fill:#ffffff" /><path
       d="M138.312,78.602h-0.744V69.52h0.744V78.602z"
       id="path77"
       style="fill:#ffffff" /><path
       d="M144.745,76.023h-4.131c0.02,0.672,0.188,1.199,0.504,1.582s0.74,0.574,1.271,0.574c0.383,0,0.719-0.104,1.008-0.311   s0.529-0.52,0.721-0.938l0.662,0.363c-0.266,0.527-0.591,0.915-0.976,1.163s-0.856,0.372-1.415,0.372   c-0.762,0-1.378-0.255-1.849-0.765s-0.706-1.179-0.706-2.007c0-0.852,0.233-1.539,0.7-2.063s1.077-0.785,1.831-0.785   c0.719,0,1.295,0.241,1.729,0.724s0.65,1.126,0.65,1.931V76.023z M143.89,75.408c-0.035-0.477-0.193-0.846-0.475-1.107   s-0.662-0.393-1.143-0.393c-0.438,0-0.804,0.137-1.099,0.41s-0.466,0.637-0.513,1.09H143.89z"
       id="path79"
       style="fill:#ffffff" /></g><g
     id="g81"
     style="fill:#ffffff"><path
       fill="#010202"
       d="M100.887,21.164l0.015-0.096l-1.69-1.166l1.913-2.202l-3.798-0.757l-0.082-0.129   c-0.625-1.028-1.486-1.124-2.396-1.225c-0.457-0.048-0.931-0.101-1.341-0.288l-0.743-0.334l4.422-1.752l-1.545-1.021l1.969-2.275   l-1.562-1.097l0.106-0.255c0.152-0.367,0.36-0.747,0.56-1.111c0.326-0.598,0.729-1.34,0.603-1.613   c-0.518-1.097-0.259-2.064-0.033-2.915c0.145-0.536,0.277-1.044,0.226-1.552c-0.019-0.203-0.036-0.411-0.056-0.672l-0.011-0.137   l-3.544,0.909l-0.602-0.88l-1.662,1.651l-0.988-1.182l-1.588,2.399L88.301,3.02l-0.365,3.403l-0.823-0.709l-2.052,4.482   l-0.727-5.043l-1.457,0.833l0.568-3.018l-1.396-0.172L82.544,0c-1.74,2.078-2.441,6.671-0.833,10.293l0.502-0.005   c0.955,0,1.748,0.133,1.748,1.755c0.002,0.98-0.338,2.748-0.666,4.456c-0.045,0.23-0.088,0.458-0.132,0.684   c2.524-1.957,4.087-3.909,5.877-6.141c0.881-1.099,1.792-2.236,2.882-3.444l0.546,0.419l-0.324,0.5   c-2.574,3.975-5.016,7.74-9.119,10.786c1.168,0.178,2.332,0.264,3.536,0.264c2.068,0,4.034-0.255,6.112-0.525l3.613-0.46   l-2.545,1.007c-3.749,1.482-6.833,1.93-10.732,1.56c-0.115,0.006-0.732,0.322-1.207,1.185c-0.129,0.232-0.331,0.473-0.547,0.728   c-0.177,0.208-0.365,0.433-0.516,0.66c0.129-0.049,0.262-0.093,0.485-0.139l0.587-0.12l-0.904,2.674l1.286,0.083l-0.006,0.328   c-0.009,0.633-0.023,1.5,0.158,1.689c0.013,0.012,0.057,0.054,0.222,0.054c0.329,0,0.901-0.165,1.559-0.37l0.221-0.066l1.967,2.407   l1.688-1.248l1.229,1.609l0.907-1.557l1.982,1.14l-0.038-1.951l2.933,0.266l-0.031-1.458l2.666-0.413l-0.794-1.42l2.289-0.665   l-0.93-2.378L100.887,21.164z"
       id="path83"
       style="fill:#ffffff" /><path
       fill="#010202"
       d="M73.08,15.71c0.304,0.169,0.616,0.318,0.917,0.463c0.718,0.345,1.396,0.669,1.891,1.185   c0.647,0.673,1.436,1.047,2.218,1.047c1.054,0,1.94-0.674,2.375-1.805c0.143-0.374,0.253-0.761,0.34-1.089   c0.256-0.957,0.204-1.677-0.149-2.137c-0.387-0.501-1.14-0.681-2.19-0.525C76.371,13.161,74.457,14.175,73.08,15.71z"
       id="path85"
       style="fill:#ffffff" /><path
       fill="#010202"
       d="M74.527,9.24c-0.375,0-0.799,0.171-1.266,0.512c-0.713,0.521-1.342,1.195-1.95,1.844   c-0.226,0.245-0.462,0.498-0.7,0.739c-0.099,0.101-0.182,0.328-0.146,0.403c0.123,0.252,0.22,0.525,0.314,0.793   c0.291,0.821,0.565,1.598,1.555,1.743l4.109-2.751c-0.036-0.157-0.074-0.322-0.11-0.493c-0.093-0.427-0.191-0.87-0.335-1.3   C75.662,9.74,75.164,9.24,74.527,9.24z"
       id="path87"
       style="fill:#ffffff" /><path
       fill="#010202"
       d="M72.72,21.209c-1.063,0.269-2.083,0.629-3.261,1.049c-0.503,0.177-1.022,0.361-1.577,0.548   c1.384,1.309,3.072,2.624,5.107,2.624c0.486,0,0.996-0.073,1.506-0.215c0.352-0.098,0.791-0.355,0.916-0.641   c0.232-0.54,0.084-1.3-0.4-2.036C74.394,21.598,73.421,21.02,72.72,21.209z"
       id="path89"
       style="fill:#ffffff" /><path
       fill="#010202"
       d="M72.307,2.654L72.13,2.945c-1.339,2.208-1.339,2.208,0.056,4.082c0.194,0.259,0.411,0.555,0.66,0.895   c0.473,0.661,0.947,0.668,1.511,0.018c1.171-1.351,2-2.513,1.16-4.16l-2.155-2.933c-0.128,0.221-0.247,0.423-0.356,0.615   C72.753,1.9,72.534,2.278,72.307,2.654z"
       id="path91"
       style="fill:#ffffff" /><path
       fill="#010202"
       d="M69.242,20.902c-1.835-2.249-3.67-4.5-5.616-6.89c0.062,0.354,0.119,0.692,0.173,1.015   c0.155,0.919,0.287,1.71,0.461,2.505c0.031,0.144,0.061,0.284,0.09,0.428c0.162,0.782,0.33,1.593,0.681,2.289   c0.751,1.495,1.383,2.104,2.184,2.104c0.589,0,1.313-0.328,2.342-1.064L69.242,20.902z"
       id="path93"
       style="fill:#ffffff" /><path
       fill="#010202"
       d="M67.651,9.582l2.364,1.78l0.126-0.111c0.931-0.821,1.823-1.607,2.695-2.376   c-0.73-1.015-1.485-2.063-2.345-3.253l-0.433-0.602L67.651,9.582z"
       id="path95"
       style="fill:#ffffff" /><path
       fill="#010202"
       d="M74.335,21.086c0.231,0.152,0.458,0.325,0.675,0.493c0.537,0.409,1.041,0.797,1.593,0.888   c0.045,0.007,0.091,0.01,0.14,0.01c1.159,0,3.197-1.945,3.613-3.182c-0.638-0.244-1.264-0.366-1.856-0.366   C77.06,18.929,75.736,19.615,74.335,21.086z"
       id="path97"
       style="fill:#ffffff" /><path
       fill="#010202"
       d="M77.366,11.903c1.231-2.142,1.154-5.21-0.167-6.685l-2.24,2.896L77.366,11.903z"
       id="path99"
       style="fill:#ffffff" /><path
       fill="#010202"
       d="M73.538,16.804c-0.526,0-1.068,0.415-1.656,1.269c-0.432,0.627-0.81,1.296-1.206,2.007   c-0.165,0.292-0.334,0.592-0.512,0.901l0.295-0.04c2.078-0.283,3.873-0.528,5.216-2.18c-0.051-0.079-0.099-0.153-0.146-0.226   c-0.11-0.173-0.212-0.334-0.324-0.488C74.603,17.212,74.061,16.804,73.538,16.804z"
       id="path101"
       style="fill:#ffffff" /><path
       fill="#010202"
       d="M70.978,15.644c-0.922-0.62-1.61-0.512-2.236,0.364c-0.284,0.394-0.503,0.833-0.718,1.258   c-0.087,0.174-0.172,0.341-0.261,0.503l0.61,0.673c0.498,0.549,0.979,1.08,1.476,1.632c0.136-0.245,0.264-0.489,0.392-0.727   c0.322-0.607,0.625-1.181,1.002-1.718c0.352-0.5,0.478-0.845,0.419-1.153C71.61,16.189,71.392,15.924,70.978,15.644z"
       id="path103"
       style="fill:#ffffff" /><path
       fill="#010202"
       d="M67.861,11.024c-0.015,0-0.028,0-0.046,0.002c-0.213,0.013-0.646,0.621-0.652,0.996   c-0.009,1.084,0.057,2.193,0.122,3.264c0.021,0.365,0.045,0.729,0.063,1.094l2.857-2.302c-0.087-0.186-0.173-0.382-0.268-0.592   c-0.256-0.583-0.548-1.242-0.929-1.839C68.798,11.322,68.253,11.024,67.861,11.024z"
       id="path105"
       style="fill:#ffffff" /><path
       fill="#010202"
       d="M79.43,6.027l-0.221,0.061l-0.788,5.922l0.268,0.036c0.639,0.088,1.352,0.184,2.376,0.322L79.43,6.027z"
       id="path107"
       style="fill:#ffffff" /><path
       fill="#010202"
       d="M76.369,24.941c2.896-0.821,4.614-2.59,5.113-5.264c-0.355,0.291-0.705,0.594-1.074,0.911   c-0.976,0.85-1.988,1.727-3.131,2.372C76.237,23.548,76.146,24.054,76.369,24.941z"
       id="path109"
       style="fill:#ffffff" /><path
       fill="#010202"
       d="M67.071,26.064c0.994,0.345,2.017,0.7,3.039,0.7c0.716,0,1.373-0.172,2.009-0.526   c-1.612-0.789-3.146-1.54-4.628-2.268c-0.283,0.553-0.618,1.205-0.974,1.899C66.701,25.933,66.886,25.999,67.071,26.064z"
       id="path111"
       style="fill:#ffffff" /><path
       fill="#010202"
       d="M82.4,15.941c0.199-1.029,0.35-2.051,0.51-3.132c0.065-0.445,0.133-0.895,0.203-1.351l-1.795,0.406   c0.82,2.257,0.495,4.378-1.024,6.654C81.457,18.186,82.129,17.361,82.4,15.941z"
       id="path113"
       style="fill:#ffffff" /><path
       fill="#010202"
       d="M66.499,15.389c-0.06-1.134-0.114-2.204,0.001-3.278c0.11-1.016-0.177-1.622-1.175-2.412   c0.184,0.895,0.114,1.798,0.045,2.674c-0.125,1.593-0.244,3.101,1.185,4.335C66.543,16.265,66.521,15.821,66.499,15.389z"
       id="path115"
       style="fill:#ffffff" /><path
       fill="#010202"
       d="M76.417,27.003c0.316-0.072,0.645-0.145,0.971-0.202c0.057-0.576,0.112-1.109,0.166-1.637   c-1.637,0.506-3.235,1.004-4.951,1.533c0.598,0.401,1.216,0.59,1.939,0.59C75.173,27.287,75.805,27.145,76.417,27.003z"
       id="path117"
       style="fill:#ffffff" /><path
       fill="#010202"
       d="M76.367,4.618l1.553,0.051L75.31,2.231c0.142,0.622,0.242,1.056,0.339,1.485   C75.937,4.075,76.216,4.427,76.367,4.618z"
       id="path119"
       style="fill:#ffffff" /></g><g
     id="g121"
     style="fill:#ffffff"><g
       id="g123"
       style="fill:#ffffff"><g
         id="g125"
         style="fill:#ffffff"><line
           fill="none"
           stroke="#010202"
           stroke-width="1.5"
           stroke-miterlimit="10"
           x1="64.485"
           y1="31.038"
           x2="0.95"
           y2="31.038"
           id="line127"
           style="fill:#ffffff;stroke:#ffffff" /></g></g><g
       id="g129"
       style="fill:#ffffff"><g
         id="g131"
         style="fill:#ffffff"><line
           fill="none"
           stroke="#010202"
           stroke-width="1.5"
           stroke-miterlimit="10"
           x1="100.265"
           y1="31.038"
           x2="163.8"
           y2="31.038"
           id="line133"
           style="fill:#ffffff;stroke:#ffffff" /></g></g></g><g
     id="g135" /><g
     id="g137" /><g
     id="g139" /><g
     id="g141" /><g
     id="g143" /><g
     id="g145" /></svg>